{
  "accessors": [
    {
      "bufferView": 1,
      "componentType": 5126,
      "count": 2193,
      "max": [
        70.0,
        -90.0,
        -16.0
      ],
      "min": [
        -2.23799991607666,
        -154.0,
        -33.0
      ],
      "type": "VEC3"
    },
    {
      "bufferView": 1,
      "byteOffset": 26316,
      "componentType": 5126,
      "count": 2193,
      "max": [
        1.0,
        1.0,
        1.0
      ],
      "min": [
        -0.9999876618385315,
        -0.9999122619628906,
        -1.0
      ],
      "type": "VEC3"
    },
    {
      "bufferView": 0,
      "componentType": 5125,
      "count": 6105,
      "type": "SCALAR"
    },
    {
      "bufferView": 1,
      "byteOffset": 52632,
      "componentType": 5126,
      "count": 27750,
      "max": [
        50.0,
        -19.0,
        21.0
      ],
      "min": [
        -50.0,
        -75.0,
        -61.0
      ],
      "type": "VEC3"
    },
    {
      "bufferView": 1,
      "byteOffset": 385632,
      "componentType": 5126,
      "count": 27750,
      "max": [
        1.0,
        1.0,
        1.0
      ],
      "min": [
        -1.0,
        -1.0,
        -1.0
      ],
      "type": "VEC3"
    },
    {
      "bufferView": 0,
      "byteOffset": 24420,
      "componentType": 5125,
      "count": 81780,
      "type": "SCALAR"
    },
    {
      "bufferView": 1,
      "byteOffset": 718632,
      "componentType": 5126,
      "count": 4815,
      "max": [
        47.0,
        -0.0,
        21.0
      ],
      "min": [
        -47.0,
        -68.0,
        -53.0
      ],
      "type": "VEC3"
    },
    {
      "bufferView": 1,
      "byteOffset": 776412,
      "componentType": 5126,
      "count": 4815,
      "max": [
        1.0,
        1.0,
        1.0
      ],
      "min": [
        -1.0,
        -1.0,
        -1.0
      ],
      "type": "VEC3"
    },
    {
      "bufferView": 0,
      "byteOffset": 351540,
      "componentType": 5125,
      "count": 14325,
      "type": "SCALAR"
    },
    {
      "bufferView": 1,
      "byteOffset": 834192,
      "componentType": 5126,
      "count": 433,
      "max": [
        43.0,
        -68.0,
        -14.362000465393066
      ],
      "min": [
        22.36199951171875,
        -118.0,
        -35.0
      ],
      "type": "VEC3"
    },
    {
      "bufferView": 1,
      "byteOffset": 839388,
      "componentType": 5126,
      "count": 433,
      "max": [
        1.0,
        0.5832377076148987,
        0.9995173215866089
      ],
      "min": [
        -1.0,
        -1.0,
        -0.9999978542327881
      ],
      "type": "VEC3"
    },
    {
      "bufferView": 0,
      "byteOffset": 408840,
      "componentType": 5125,
      "count": 1278,
      "type": "SCALAR"
    }
  ],
  "asset": {
    "extras": {
      "author": "Cwat325 (https://sketchfab.com/Cwat325)",
      "license": "CC-BY-4.0 (http://creativecommons.org/licenses/by/4.0/)",
      "source": "https://sketchfab.com/3d-models/stove-2bc0295e558844c1a35b99c2e9da23a1",
      "title": "Stove"
    },
    "generator": "Sketchfab-11.94.0",
    "version": "2.0"
  },
  "bufferViews": [
    {
      "buffer": 0,
      "byteLength": 413952,
      "name": "floatBufferViews",
      "target": 34963
    },
    {
      "buffer": 0,
      "byteLength": 844584,
      "byteOffset": 413952,
      "byteStride": 12,
      "name": "floatBufferViews",
      "target": 34962
    }
  ],
  "buffers": [
    {
      "byteLength": 1258536,
      "uri": "scene.bin"
    }
  ],
  "materials": [
    {
      "doubleSided": true,
      "name": "color_10988977",
      "pbrMetallicRoughness": {
        "baseColorFactor": [
          0.654902,
          0.678431,
          0.694118,
          1.0
        ],
        "metallicFactor": 0.0
      }
    },
    {
      "doubleSided": true,
      "name": "color_11107152",
      "pbrMetallicRoughness": {
        "baseColorFactor": [
          0.662745,
          0.482353,
          0.313726,
          1.0
        ],
        "metallicFactor": 0.0
      }
    },
    {
      "doubleSided": true,
      "name": "color_15277357",
      "pbrMetallicRoughness": {
        "baseColorFactor": [
          0.913725,
          0.113725,
          0.176471,
          1.0
        ],
        "metallicFactor": 0.0
      }
    },
    {
      "doubleSided": true,
      "name": "color_16771792",
      "pbrMetallicRoughness": {
        "baseColorFactor": [
          1.0,
          0.917647,
          0.815686,
          1.0
        ],
        "metallicFactor": 0.0
      }
    }
  ],
  "meshes": [
    {
      "name": "Object_0",
      "primitives": [
        {
          "attributes": {
            "NORMAL": 1,
            "POSITION": 0
          },
          "indices": 2,
          "material": 0,
          "mode": 4
        }
      ]
    },
    {
      "name": "Object_1",
      "primitives": [
        {
          "attributes": {
            "NORMAL": 4,
            "POSITION": 3
          },
          "indices": 5,
          "material": 1,
          "mode": 4
        }
      ]
    },
    {
      "name": "Object_2",
      "primitives": [
        {
          "attributes": {
            "NORMAL": 7,
            "POSITION": 6
          },
          "indices": 8,
          "material": 2,
          "mode": 4
        }
      ]
    },
    {
      "name": "Object_3",
      "primitives": [
        {
          "attributes": {
            "NORMAL": 10,
            "POSITION": 9
          },
          "indices": 11,
          "material": 3,
          "mode": 4
        }
      ]
    }
  ],
  "nodes": [
    {
      "children": [
        1
      ],
      "matrix": [
        1.0,
        0.0,
        0.0,
        0.0,
        0.0,
        2.220446049250313e-16,
        -1.0,
        0.0,
        0.0,
        1.0,
        2.220446049250313e-16,
        0.0,
        0.0,
        0.0,
        0.0,
        1.0
      ],
      "name": "Sketchfab_model"
    },
    {
      "children": [
        2,
        3,
        4,
        5
      ],
      "name": "tinker.obj.cleaner.materialmerger.gles"
    },
    {
      "mesh": 0,
      "name": "Object_2"
    },
    {
      "mesh": 1,
      "name": "Object_3"
    },
    {
      "mesh": 2,
      "name": "Object_4"
    },
    {
      "mesh": 3,
      "name": "Object_5"
    }
  ],
  "scene": 0,
  "scenes": [
    {
      "name": "Sketchfab_Scene",
      "nodes": [
        0
      ]
    }
  ]
}
