{
  "accessors": [
    {
      "bufferView": 1,
      "componentType": 5126,
      "count": 377,
      "max": [
        73.0,
        -0.0,
        49.64099884033203
      ],
      "min": [
        -65.0,
        -5.6381001472473145,
        -69.0
      ],
      "type": "VEC3"
    },
    {
      "bufferView": 1,
      "byteOffset": 4524,
      "componentType": 5126,
      "count": 377,
      "max": [
        0.9298209547996521,
        1.0,
        0.9298480749130249
      ],
      "min": [
        -0.9298238754272461,
        -0.3982311189174652,
        -0.9298479557037354
      ],
      "type": "VEC3"
    },
    {
      "bufferView": 0,
      "componentType": 5125,
      "count": 1107,
      "type": "SCALAR"
    },
    {
      "bufferView": 1,
      "byteOffset": 9048,
      "componentType": 5126,
      "count": 65532,
      "max": [
        91.23040008544922,
        -9.329099655151367,
        63.92399978637695
      ],
      "min": [
        -83.13400268554688,
        -79.0,
        -90.6510009765625
      ],
      "type": "VEC3"
    },
    {
      "bufferView": 1,
      "byteOffset": 795432,
      "componentType": 5126,
      "count": 65532,
      "max": [
        0.9995840787887573,
        0.9987072944641113,
        0.9999014735221863
      ],
      "min": [
        -1.0,
        -0.9999999403953552,
        -0.9999147057533264
      ],
      "type": "VEC3"
    },
    {
      "bufferView": 0,
      "byteOffset": 4428,
      "componentType": 5125,
      "count": 275769,
      "type": "SCALAR"
    },
    {
      "bufferView": 1,
      "byteOffset": 1581816,
      "componentType": 5126,
      "count": 21416,
      "max": [
        98.31179809570313,
        -9.329099655151367,
        71.29199981689453
      ],
      "min": [
        -90.31199645996094,
        -78.45259857177734,
        -90.6510009765625
      ],
      "type": "VEC3"
    },
    {
      "bufferView": 1,
      "byteOffset": 1838808,
      "componentType": 5126,
      "count": 21416,
      "max": [
        0.9995699524879456,
        0.998707115650177,
        1.0
      ],
      "min": [
        -0.9995798468589783,
        -0.9999999403953552,
        -0.9999147057533264
      ],
      "type": "VEC3"
    },
    {
      "bufferView": 0,
      "byteOffset": 1107504,
      "componentType": 5125,
      "count": 78684,
      "type": "SCALAR"
    },
    {
      "bufferView": 1,
      "byteOffset": 2095800,
      "componentType": 5126,
      "count": 49290,
      "max": [
        105.0,
        -4.7164998054504395,
        76.28199768066406
      ],
      "min": [
        -97.0,
        -76.4530029296875,
        -95.64099884033203
      ],
      "type": "VEC3"
    },
    {
      "bufferView": 1,
      "byteOffset": 2687280,
      "componentType": 5126,
      "count": 49290,
      "max": [
        1.0,
        0.9934327006340027,
        0.9992632269859314
      ],
      "min": [
        -0.9999148845672607,
        -0.9786398410797119,
        -1.0
      ],
      "type": "VEC3"
    },
    {
      "bufferView": 0,
      "byteOffset": 1422240,
      "componentType": 5125,
      "count": 142740,
      "type": "SCALAR"
    }
  ],
  "asset": {
    "extras": {
      "author": "Cwat325 (https://sketchfab.com/Cwat325)",
      "license": "CC-BY-4.0 (http://creativecommons.org/licenses/by/4.0/)",
      "source": "https://sketchfab.com/3d-models/christmas-trees-3983a816995444bb9ebc14c3feae5975",
      "title": "Christmas trees"
    },
    "generator": "Sketchfab-11.94.0",
    "version": "2.0"
  },
  "bufferViews": [
    {
      "buffer": 0,
      "byteLength": 1993200,
      "name": "floatBufferViews",
      "target": 34963
    },
    {
      "buffer": 0,
      "byteLength": 3278760,
      "byteOffset": 1993200,
      "byteStride": 12,
      "name": "floatBufferViews",
      "target": 34962
    }
  ],
  "buffers": [
    {
      "byteLength": 5271960,
      "uri": "scene.bin"
    }
  ],
  "materials": [
    {
      "doubleSided": true,
      "name": "color_11107152",
      "pbrMetallicRoughness": {
        "baseColorFactor": [
          0.662745,
          0.482353,
          0.313726,
          1.0
        ],
        "metallicFactor": 0.0
      }
    },
    {
      "doubleSided": true,
      "name": "color_16448250",
      "pbrMetallicRoughness": {
        "baseColorFactor": [
          0.980392,
          0.980392,
          0.980392,
          1.0
        ],
        "metallicFactor": 0.0
      }
    },
    {
      "doubleSided": true,
      "name": "color_4634441",
      "pbrMetallicRoughness": {
        "baseColorFactor": [
          0.27451,
          0.717647,
          0.286275,
          1.0
        ],
        "metallicFactor": 0.0
      }
    }
  ],
  "meshes": [
    {
      "name": "Object_0",
      "primitives": [
        {
          "attributes": {
            "NORMAL": 1,
            "POSITION": 0
          },
          "indices": 2,
          "material": 0,
          "mode": 4
        }
      ]
    },
    {
      "name": "Object_1",
      "primitives": [
        {
          "attributes": {
            "NORMAL": 4,
            "POSITION": 3
          },
          "indices": 5,
          "material": 1,
          "mode": 4
        }
      ]
    },
    {
      "name": "Object_2",
      "primitives": [
        {
          "attributes": {
            "NORMAL": 7,
            "POSITION": 6
          },
          "indices": 8,
          "material": 1,
          "mode": 4
        }
      ]
    },
    {
      "name": "Object_3",
      "primitives": [
        {
          "attributes": {
            "NORMAL": 10,
            "POSITION": 9
          },
          "indices": 11,
          "material": 2,
          "mode": 4
        }
      ]
    }
  ],
  "nodes": [
    {
      "children": [
        1
      ],
      "matrix": [
        1.0,
        0.0,
        0.0,
        0.0,
        0.0,
        2.220446049250313e-16,
        -1.0,
        0.0,
        0.0,
        1.0,
        2.220446049250313e-16,
        0.0,
        0.0,
        0.0,
        0.0,
        1.0
      ],
      "name": "Sketchfab_model"
    },
    {
      "children": [
        2,
        3,
        4,
        5
      ],
      "name": "tinker.obj.cleaner.materialmerger.gles"
    },
    {
      "mesh": 0,
      "name": "Object_2"
    },
    {
      "mesh": 1,
      "name": "Object_3"
    },
    {
      "mesh": 2,
      "name": "Object_4"
    },
    {
      "mesh": 3,
      "name": "Object_5"
    }
  ],
  "scene": 0,
  "scenes": [
    {
      "name": "Sketchfab_Scene",
      "nodes": [
        0
      ]
    }
  ]
}
