{
  "accessors": [
    {
      "bufferView": 1,
      "componentType": 5126,
      "count": 15463,
      "max": [
        74.30999755859375,
        -0.0,
        52.0
      ],
      "min": [
        -79.0,
        -29.236000061035156,
        -83.0
      ],
      "type": "VEC3"
    },
    {
      "bufferView": 1,
      "byteOffset": 185556,
      "componentType": 5126,
      "count": 15463,
      "max": [
        1.0,
        1.0,
        1.0
      ],
      "min": [
        -1.0,
        -1.0,
        -1.0
      ],
      "type": "VEC3"
    },
    {
      "bufferView": 0,
      "componentType": 5125,
      "count": 44988,
      "type": "SCALAR"
    }
  ],
  "asset": {
    "extras": {
      "author": "Cwat325 (https://sketchfab.com/Cwat325)",
      "license": "CC-BY-4.0 (http://creativecommons.org/licenses/by/4.0/)",
      "source": "https://sketchfab.com/3d-models/twas-2398572a9ad7468dbc374bff6b9612f4",
      "title": "Twas"
    },
    "generator": "Sketchfab-11.94.0",
    "version": "2.0"
  },
  "bufferViews": [
    {
      "buffer": 0,
      "byteLength": 179952,
      "name": "floatBufferViews",
      "target": 34963
    },
    {
      "buffer": 0,
      "byteLength": 371112,
      "byteOffset": 179952,
      "byteStride": 12,
      "name": "floatBufferViews",
      "target": 34962
    }
  ],
  "buffers": [
    {
      "byteLength": 551064,
      "uri": "scene.bin"
    }
  ],
  "materials": [
    {
      "doubleSided": true,
      "name": "color_7720667",
      "pbrMetallicRoughness": {
        "baseColorFactor": [
          0.458824,
          0.807843,
          0.858824,
          1.0
        ],
        "metallicFactor": 0.0
      }
    }
  ],
  "meshes": [
    {
      "name": "Object_0",
      "primitives": [
        {
          "attributes": {
            "NORMAL": 1,
            "POSITION": 0
          },
          "indices": 2,
          "material": 0,
          "mode": 4
        }
      ]
    }
  ],
  "nodes": [
    {
      "children": [
        1
      ],
      "matrix": [
        1.0,
        0.0,
        0.0,
        0.0,
        0.0,
        2.220446049250313e-16,
        -1.0,
        0.0,
        0.0,
        1.0,
        2.220446049250313e-16,
        0.0,
        0.0,
        0.0,
        0.0,
        1.0
      ],
      "name": "Sketchfab_model"
    },
    {
      "children": [
        2
      ],
      "name": "tinker.obj.cleaner.materialmerger.gles"
    },
    {
      "mesh": 0,
      "name": "Object_2"
    }
  ],
  "scene": 0,
  "scenes": [
    {
      "name": "Sketchfab_Scene",
      "nodes": [
        0
      ]
    }
  ]
}
