{
  "accessors": [
    {
      "bufferView": 1,
      "componentType": 5126,
      "count": 4468,
      "max": [
        35.03499984741211,
        -0.0,
        15.906000137329102
      ],
      "min": [
        -17.802000045776367,
        -63.57899856567383,
        -16.099000930786133
      ],
      "type": "VEC3"
    },
    {
      "bufferView": 1,
      "byteOffset": 53616,
      "componentType": 5126,
      "count": 4468,
      "max": [
        1.0,
        1.0,
        0.9994238615036011
      ],
      "min": [
        -1.0,
        -1.0,
        -0.9994398355484009
      ],
      "type": "VEC3"
    },
    {
      "bufferView": 0,
      "componentType": 5125,
      "count": 21672,
      "type": "SCALAR"
    },
    {
      "bufferView": 1,
      "byteOffset": 107232,
      "componentType": 5126,
      "count": 2695,
      "max": [
        26.0,
        -61.0,
        10.496999740600586
      ],
      "min": [
        -10.989999771118164,
        -84.0,
        -36.0
      ],
      "type": "VEC3"
    },
    {
      "bufferView": 1,
      "byteOffset": 139572,
      "componentType": 5126,
      "count": 2695,
      "max": [
        0.9939793944358826,
        0.999925971031189,
        0.9998308420181274
      ],
      "min": [
        -0.9939525723457336,
        -0.999989926815033,
        -0.9985306859016418
      ],
      "type": "VEC3"
    },
    {
      "bufferView": 0,
      "byteOffset": 86688,
      "componentType": 5125,
      "count": 14172,
      "type": "SCALAR"
    }
  ],
  "asset": {
    "extras": {
      "author": "Cwat325 (https://sketchfab.com/Cwat325)",
      "license": "CC-BY-4.0 (http://creativecommons.org/licenses/by/4.0/)",
      "source": "https://sketchfab.com/3d-models/chef-36c8dd6b136b4349ae4632d605383d9d",
      "title": "Chef"
    },
    "generator": "Sketchfab-11.94.0",
    "version": "2.0"
  },
  "bufferViews": [
    {
      "buffer": 0,
      "byteLength": 143376,
      "name": "floatBufferViews",
      "target": 34963
    },
    {
      "buffer": 0,
      "byteLength": 171912,
      "byteOffset": 143376,
      "byteStride": 12,
      "name": "floatBufferViews",
      "target": 34962
    }
  ],
  "buffers": [
    {
      "byteLength": 315288,
      "uri": "scene.bin"
    }
  ],
  "materials": [
    {
      "doubleSided": true,
      "name": "color_16768282",
      "pbrMetallicRoughness": {
        "baseColorFactor": [
          1.0,
          0.866667,
          0.101961,
          1.0
        ],
        "metallicFactor": 0.0
      }
    },
    {
      "doubleSided": true,
      "name": "color_6383466",
      "pbrMetallicRoughness": {
        "baseColorFactor": [
          0.380392,
          0.403922,
          0.415686,
          1.0
        ],
        "metallicFactor": 0.0
      }
    }
  ],
  "meshes": [
    {
      "name": "Object_0",
      "primitives": [
        {
          "attributes": {
            "NORMAL": 1,
            "POSITION": 0
          },
          "indices": 2,
          "material": 0,
          "mode": 4
        }
      ]
    },
    {
      "name": "Object_1",
      "primitives": [
        {
          "attributes": {
            "NORMAL": 4,
            "POSITION": 3
          },
          "indices": 5,
          "material": 1,
          "mode": 4
        }
      ]
    }
  ],
  "nodes": [
    {
      "children": [
        1
      ],
      "matrix": [
        1.0,
        0.0,
        0.0,
        0.0,
        0.0,
        2.220446049250313e-16,
        -1.0,
        0.0,
        0.0,
        1.0,
        2.220446049250313e-16,
        0.0,
        0.0,
        0.0,
        0.0,
        1.0
      ],
      "name": "Sketchfab_model"
    },
    {
      "children": [
        2,
        3
      ],
      "name": "tinker.obj.cleaner.materialmerger.gles"
    },
    {
      "mesh": 0,
      "name": "Object_2"
    },
    {
      "mesh": 1,
      "name": "Object_3"
    }
  ],
  "scene": 0,
  "scenes": [
    {
      "name": "Sketchfab_Scene",
      "nodes": [
        0
      ]
    }
  ]
}
